<?xml version="1.0" encoding="UTF-8" standalone="no"?>
<!-- Created with Inkscape (http://www.inkscape.org/) -->

<svg
   width="180"
   height="200"
   viewBox="0 0 180 200"
   version="1.1"
   id="svg5"
   inkscape:version="1.2 (dc2aedaf03, 2022-05-15)"
   sodipodi:docname="arch-neofetch.svg"
   xmlns:inkscape="http://www.inkscape.org/namespaces/inkscape"
   xmlns:sodipodi="http://sodipodi.sourceforge.net/DTD/sodipodi-0.dtd"
   xmlns:xlink="http://www.w3.org/1999/xlink"
   xmlns="http://www.w3.org/2000/svg"
   xmlns:svg="http://www.w3.org/2000/svg">
  <sodipodi:namedview
     id="namedview7"
     pagecolor="#ffffff"
     bordercolor="#000000"
     borderopacity="0.25"
     inkscape:showpageshadow="2"
     inkscape:pageopacity="0.0"
     inkscape:pagecheckerboard="0"
     inkscape:deskcolor="#d1d1d1"
     inkscape:document-units="px"
     showgrid="false"
     inkscape:zoom="2.95"
     inkscape:cx="63.220339"
     inkscape:cy="105.08475"
     inkscape:window-width="1440"
     inkscape:window-height="836"
     inkscape:window-x="0"
     inkscape:window-y="0"
     inkscape:window-maximized="1"
     inkscape:current-layer="layer1" />
  <defs
     id="defs2">
    <linearGradient
       inkscape:collect="always"
       id="linearGradient1518">
      <stop
         style="stop-color:#5294e2;stop-opacity:1;"
         offset="0"
         id="stop1514" />
      <stop
         style="stop-color:#3daee9;stop-opacity:1;"
         offset="1"
         id="stop1516" />
    </linearGradient>
    <linearGradient
       id="lg"
       y1="9.90843"
       x2="25.431995"
       x1="34.76569"
       y2="28.426884"
       gradientTransform="matrix(2.5787581,0,0,2.9691987,0.60401159,6.0669806)"
       gradientUnits="userSpaceOnUse">
      <stop
         stop-color="#fff"
         stop-opacity="0"
         offset="0"
         id="stop1128" />
      <stop
         stop-color="#fff"
         stop-opacity=".27451"
         offset="1"
         id="stop1130" />
    </linearGradient>
    <linearGradient
       inkscape:collect="always"
       xlink:href="#linearGradient1518"
       id="linearGradient1520"
       x1="165.319"
       y1="176.37555"
       x2="85.667702"
       y2="21.726263"
       gradientUnits="userSpaceOnUse" />
  </defs>
  <g
     inkscape:label="Layer 1"
     inkscape:groupmode="layer"
     id="layer1">
    <g
       id="g1870"
       transform="translate(0.148691,4.8050832)"
       inkscape:export-filename="icon.png"
       inkscape:export-xdpi="96"
       inkscape:export-ydpi="96">
      <path
         d="M 89.851304,6.6478226 C 81.967835,25.974083 77.180751,38.632737 68.406275,57.385377 73.785519,63.088372 80.398889,69.707276 91.126937,77.208894 79.593662,72.463308 71.73233,67.712196 65.855008,62.767388 54.623348,86.204737 37.01352,119.57874 1.304088,183.74226 c 28.058399,-16.1986 49.813343,-26.19337 70.085121,-30.00643 -0.868869,-3.73836 -1.330975,-7.80046 -1.29777,-12.02029 l 0.02214,-0.88547 c 0.445503,-17.98062 9.80107,-31.80782 20.883308,-30.86977 11.079463,0.93804 19.707283,16.28161 19.261783,34.265 -0.0858,3.38693 -0.47871,6.64104 -1.14558,9.66272 20.05318,3.92374 41.60059,13.87147 69.28544,29.85424 -5.45949,-10.05011 -10.34896,-19.10683 -15.00322,-27.73741 -7.33005,-5.68086 -14.97279,-13.07179 -30.56817,-21.07701 10.71975,2.78647 18.40122,6.00738 24.3837,9.59907 C 109.89895,56.436262 106.07481,44.723126 89.851304,6.6478226 v -2.49e-4 z"
         fill="#1793d1"
         id="path1135"
         style="fill:url(#linearGradient1520);fill-opacity:1;stroke-width:2.7671" />
      <path
         id="path2522"
         fill-opacity="0.16568"
         fill="#ffffff"
         d="M 139.69509,111.90582 C 101.30987,59.809606 92.413639,17.818856 90.158452,7.7936513 110.635,55.019756 110.49387,55.600847 139.69509,111.90582 Z"
         style="stroke-width:2.7671" />
      <path
         d="m 90.197192,7.3396254 c -0.996157,2.4474451 -1.936971,4.8335716 -2.855648,7.0906946 -1.007225,2.475449 -1.986778,4.860412 -2.938661,7.177306 -0.951882,2.316893 -1.917601,4.512864 -2.85288,6.744807 -0.938048,2.231667 -1.809684,4.438153 -2.767101,6.658474 -0.957417,2.219215 -2.008915,4.463333 -3.027208,6.743424 -1.018293,2.282858 -2.08086,4.587853 -3.198768,7.006299 -1.117909,2.415678 -2.291159,4.983548 -3.547423,7.609526 -0.168793,0.354189 -0.34312,0.76372 -0.517448,1.123443 5.365408,5.683624 11.981545,12.249954 22.654252,19.715599 -11.530508,-4.745586 -19.369703,-9.496697 -25.249792,-14.441506 -0.304381,0.625365 -0.547886,1.176018 -0.863335,1.815218 -1.162183,2.410145 -2.410145,4.795385 -3.718983,7.437966 -0.312683,0.619831 -0.542352,1.181552 -0.863336,1.815218 -1.386317,2.778177 -2.839045,5.653195 -4.410758,8.732978 -0.312682,0.608762 -0.630899,1.112374 -0.951883,1.729438 -0.949115,1.845656 -3.984624,7.664868 -7.089311,13.578162 -1.812451,3.453338 -3.234741,6.281318 -5.276861,10.116518 -0.578324,1.10131 -1.768177,3.30669 -2.075325,3.89054 22.482691,-12.653946 46.739094,-31.035795 90.796867,-15.304828 -2.20538,-4.178322 -4.32221,-8.077167 -6.22597,-11.760178 -1.90377,-3.685777 -3.63044,-7.114215 -5.2741,-10.376635 -1.64366,-3.262411 -3.16279,-6.339427 -4.58508,-9.253184 -1.41953,-2.913757 -2.73667,-5.664255 -3.97633,-8.301301 -1.23966,-2.637047 -2.44888,-5.174478 -3.54465,-7.609527 -1.09854,-2.432281 -2.1196,-4.787084 -3.11299,-7.089311 -0.99339,-2.304995 -1.92314,-4.587853 -2.85565,-6.831971 -0.92974,-2.245502 -1.85949,-4.398583 -2.767099,-6.658474 -0.392928,-0.983428 -0.727747,-2.030499 -1.123443,-3.026655 -2.457185,-5.769128 -4.86733,-11.487617 -7.781086,-18.3320406 v 5.54e-5 z"
         fill="url(#lg)"
         id="path1138"
         style="fill:url(#lg);stroke-width:2.7671" />
    </g>
  </g>
</svg>
